<svg xmlns="http://www.w3.org/2000/svg" xmlns:xlink="http://www.w3.org/1999/xlink" width="80" height="80"><defs><path id="a" d="M40 13c10.493 0 19 8.506 19 19s-8.507 19-19 19c-10.494 0-19-8.506-19-19s8.506-19 19-19z"/><path id="b" d="M40 21c10.493 0 19 8.506 19 19s-8.507 19-19 19c-10.494 0-19-8.506-19-19s8.506-19 19-19z"/><path id="c" d="M40 29c10.493 0 19 8.506 19 19s-8.507 19-19 19c-10.494 0-19-8.506-19-19s8.506-19 19-19z"/></defs><g fill="none" fill-rule="evenodd"><use fill="#FFF" xlink:href="#a"/><path stroke="#FC0" stroke-width="3" d="M40 14.5c-9.666 0-17.5 7.834-17.5 17.5S30.334 49.5 40 49.5c9.665 0 17.5-7.835 17.5-17.5S49.665 14.5 40 14.5z"/><path stroke="#FFF" stroke-width="2" d="M40 12c11.046 0 20 8.954 20 20s-8.954 20-20 20-20-8.954-20-20 8.954-20 20-20z"/><use fill="#FFF" xlink:href="#b"/><path stroke="#121212" stroke-width="3" d="M40 22.5c-9.666 0-17.5 7.834-17.5 17.5S30.334 57.5 40 57.5c9.665 0 17.5-7.835 17.5-17.5S49.665 22.5 40 22.5z"/><path stroke="#FFF" stroke-width="2" d="M40 20c11.046 0 20 8.954 20 20s-8.954 20-20 20-20-8.954-20-20 8.954-20 20-20z"/><g><use fill="#FFF" xlink:href="#c"/><path stroke="#121212" stroke-width="3" d="M40 30.5c-9.666 0-17.5 7.834-17.5 17.5S30.334 65.5 40 65.5c9.665 0 17.5-7.835 17.5-17.5S49.665 30.5 40 30.5z"/><path stroke="#FFF" stroke-width="2" d="M40 28c11.046 0 20 8.954 20 20s-8.954 20-20 20-20-8.954-20-20 8.954-20 20-20z"/></g><path fill="#FC0" fill-rule="nonzero" d="M39.341 44.661c0-.102.098-.205.196-.205h2.146c.683 0 1.17.512 1.17 1.229v.819c0 .716-.585 1.331-1.268 1.331h-2.048c-.098 0-.196-.103-.196-.206v-2.968zM43.44 53.5v-2.288h-4.19v-1.228h2.335c1.952 0 3.415-1.637 3.415-3.583v-.819C45 43.638 43.537 42 41.585 42H37v13h2.244l.006-1.5h4.189z"/></g></svg>