<svg xmlns="http://www.w3.org/2000/svg" x="0px" y="0px" viewBox="0 0 16 16">
<path d="M4.64871 7.99983C4.64871 4.88164 7.1576 2.33691 10.3116 2.33691C13.4298 2.33691 15.9746 4.88164 15.9746 7.99983C15.9746 11.1181 13.4298 13.6628 10.3116 13.6628C7.19344 13.6628 4.64871 11.1539 4.64871 7.99983ZM8.197 7.96399C8.197 9.11091 9.16471 10.0787 10.3116 10.0787C11.4586 10.0787 12.3904 9.14675 12.4263 7.96399C12.4263 6.81706 11.4586 5.84935 10.3116 5.84935C9.16471 5.84935 8.197 6.81706 8.197 7.96399ZM4.61307 12.1932V3.9497H0.0253906L2.60596 12.1932H4.61307Z"/>
</svg>
