<svg width="130" height="130" viewBox="0 0 130 130" fill="none" xmlns="http://www.w3.org/2000/svg">
    <path d="M37.0991 4.65818H39.0613C39.7972 4.65818 40.4104 4.04526 40.4104 3.30976V1.34842C40.4104 0.612919 39.7972 0 39.0613 0H37.0991C36.3632 0 35.75 0.612919 35.75 1.34842V3.30976C35.8113 4.10655 36.3632 4.65818 37.0991 4.65818Z" fill="black"/>
    <path d="M68.6793 4.65818H71.5613H71.684H74.5661C75.4246 4.65818 76.1604 3.98397 76.1604 3.06459V1.59359C76.1604 0.735502 75.4859 0 74.5661 0H71.7453H71.6227H68.6793C67.8208 0 67.0849 0.674211 67.0849 1.59359V3.12588C67.1463 3.98397 67.8208 4.65818 68.6793 4.65818Z" fill="black"/>
    <path d="M86.5849 4.65821H89.467V7.53893C89.467 8.39702 90.1415 9.13252 91.0613 9.13252H92.533C93.3915 9.13252 94.1274 8.45831 94.1274 7.53893V4.65821V4.53563V1.65491C94.1274 0.796828 93.4528 0.0613251 92.533 0.0613251H89.6509H89.5283H86.6462C85.7877 0.0613251 85.0519 0.735536 85.0519 1.65491V3.12592C85.0519 3.984 85.7264 4.65821 86.5849 4.65821Z" fill="black"/>
    <path d="M40.2878 7.60019C40.2878 8.45827 40.9623 9.19378 41.8821 9.19378H44.7642V13.5455H41.8821C41.0236 13.5455 40.2878 14.2197 40.2878 15.1391V16.6101C40.2878 17.4682 40.9623 18.2037 41.8821 18.2037H44.7642H44.8868H47.7689C48.6274 18.2037 49.3632 17.5295 49.3632 16.6101V13.7294H53.717V16.6101C53.717 17.4682 54.3915 18.2037 55.3113 18.2037H56.783C57.6415 18.2037 58.3774 17.5295 58.3774 16.6101V13.7294H62.7312H62.8538H67.2076V18.0811V18.2037V22.5554V22.678V25.5587C67.2076 26.4168 67.8821 27.1523 68.8019 27.1523H71.684V30.5233C71.5613 31.0137 71.1934 31.3201 70.7642 31.4427H67.3915V28.562C67.3915 27.7039 66.717 26.9684 65.7972 26.9684H64.3255C63.467 26.9684 62.7312 27.6426 62.7312 28.562V31.4427V31.5653V34.446C62.7312 35.3041 63.4057 36.0396 64.3255 36.0396H67.2076V40.3913V40.5139V43.3946C67.2076 44.2527 67.8821 44.9882 68.8019 44.9882H70.2736C71.1321 44.9882 71.8679 44.314 71.8679 43.3946V40.5139V40.3913V36.0396H76.2217H76.3444H80.6981H80.8208H83.7028C84.5613 36.0396 85.2972 35.3654 85.2972 34.446V31.5653V31.4427V28.562C85.2972 27.7039 84.6227 26.9684 83.7028 26.9684H82.2312C81.3727 26.9684 80.6368 27.6426 80.6368 28.562V30.5233C80.5142 31.0137 80.1462 31.3201 79.717 31.4427H76.3444V27.0297H79.2264C80.0849 27.0297 80.8208 26.3555 80.8208 25.4361V22.5554H85.1745H85.2972H88.1793C89.0378 22.5554 89.7736 21.8812 89.7736 20.9618V19.4908C89.7736 18.6327 89.0991 17.8972 88.1793 17.8972H85.2972H85.1745H80.8208V15.0165C80.8208 14.1584 80.1462 13.4229 79.2264 13.4229H77.7547C76.8962 13.4229 76.1604 14.0971 76.1604 15.0165V16.9778C76.0378 17.4682 75.6698 17.7746 75.2406 17.8972H71.7453V13.5455V13.4229V10.5422C71.7453 9.68411 71.0708 8.94861 70.151 8.94861H67.2689H67.1462H62.7925H62.6698H58.3161V6.06789C58.3161 5.20981 57.6415 4.47431 56.7217 4.47431H53.8396V1.59359C53.8396 0.735502 53.1651 0 52.2453 0H50.7736C49.9151 0 49.1793 0.674211 49.1793 1.59359V3.55493C49.0566 4.04526 48.6887 4.35172 48.2594 4.47431H44.8868H44.7642H41.8821C41.0236 4.47431 40.2878 5.14852 40.2878 6.06789V7.60019Z" fill="black"/>
    <path d="M76.0991 7.84534C76.0991 8.58084 76.7123 9.13247 77.4481 9.13247H79.4104C80.1462 9.13247 80.7594 8.51955 80.7594 7.78405V5.82271C80.7594 5.08721 80.1462 4.47429 79.4104 4.47429H77.4481C76.7123 4.47429 76.0991 5.08721 76.0991 5.82271V7.84534Z" fill="black"/>
    <path d="M37.0991 13.6068H39.0613C39.7972 13.6068 40.4104 12.9938 40.4104 12.2583V10.297C40.4104 9.5615 39.7972 8.94859 39.0613 8.94859H37.0991C36.3632 8.94859 35.75 9.5615 35.75 10.297V12.3196C35.8113 13.0551 36.3632 13.6068 37.0991 13.6068Z" fill="black"/>
    <path d="M80.5755 12.3196C80.5755 13.0551 81.1887 13.6068 81.9246 13.6068H83.8868C84.6227 13.6068 85.2359 12.9938 85.2359 12.2583V10.297C85.2359 9.5615 84.6227 8.94859 83.8868 8.94859H81.9246C81.1887 8.94859 80.5755 9.5615 80.5755 10.297V12.3196Z" fill="black"/>
    <path d="M92.7783 13.4842H90.816C90.0802 13.4842 89.467 14.0971 89.467 14.8326V16.794C89.467 17.5295 90.0802 18.0811 90.816 18.0811H92.7783C93.5142 18.0811 94.1274 17.4682 94.1274 16.7327V14.7713C94.1274 14.0358 93.5142 13.4842 92.7783 13.4842Z" fill="black"/>
    <path d="M37.0991 22.5554H39.0613C39.7972 22.5554 40.4104 21.9425 40.4104 21.207V19.2456C40.4104 18.5101 39.7972 17.8972 39.0613 17.8972H37.0991C36.3632 17.8972 35.75 18.5101 35.75 19.2456V21.207C35.8113 22.0038 36.3632 22.5554 37.0991 22.5554Z" fill="black"/>
    <path d="M52.5519 22.5554C53.2877 22.5554 53.9009 21.9425 53.9009 21.207V19.2456C53.9009 18.5101 53.2877 17.8972 52.5519 17.8972H50.5896C49.8538 17.8972 49.2406 18.5101 49.2406 19.2456V21.207C49.2406 21.9425 49.8538 22.4941 50.5896 22.4941H52.5519V22.5554Z" fill="black"/>
    <path d="M59.4811 27.0297H61.4434C62.1792 27.0297 62.7925 26.4168 62.7925 25.6813V23.7199C62.7925 22.9844 62.1792 22.3715 61.4434 22.3715H59.4811C58.7453 22.3715 58.1321 22.9844 58.1321 23.7199V25.6813C58.1934 26.4781 58.7453 27.0297 59.4811 27.0297Z" fill="black"/>
    <path d="M58.316 28.1943C58.316 27.4588 57.7028 26.8458 56.967 26.8458H55.0047C54.2689 26.8458 53.6557 27.4588 53.6557 28.1943V30.1556C53.6557 30.8911 54.2689 31.4427 55.0047 31.4427H56.967C57.7028 31.4427 58.316 30.8298 58.316 30.0943V28.1943Z" fill="black"/>
    <path d="M37.3444 35.9783H40.2264H40.3491H44.7642H44.8868H47.7689C48.6274 35.9783 49.3632 35.3041 49.3632 34.3847V31.504V31.3814V27.0297V26.9071V23.9651C49.3632 23.107 48.6887 22.3715 47.7689 22.3715H44.8868H44.7642H41.8821C41.0236 22.3715 40.2878 23.0457 40.2878 23.9651V25.4361C40.2878 26.2942 40.9623 27.0297 41.8821 27.0297H44.7642V30.4008C44.6415 30.8911 44.2736 31.1975 43.8444 31.3201H40.4717V28.4394C40.4717 27.5813 39.7972 26.8458 38.8774 26.8458H37.4057C36.5472 26.8458 35.8113 27.52 35.8113 28.4394V31.3201V31.4427V34.3234C35.8113 35.3041 36.4859 35.9783 37.3444 35.9783Z" fill="black"/>
    <path d="M91.0613 35.9783H92.533C93.3915 35.9783 94.1274 35.3041 94.1274 34.3847V31.504V31.3814V28.5007C94.1274 27.6426 93.4528 26.9071 92.533 26.9071H91.0613C90.2028 26.9071 89.467 27.5813 89.467 28.5007V31.3814V31.504V34.3847C89.5283 35.3041 90.2028 35.9783 91.0613 35.9783Z" fill="black"/>
    <path d="M23.9151 40.4526H26.7972H26.9811H29.8632C30.7217 40.4526 31.4576 39.7784 31.4576 38.859V37.388C31.4576 36.53 30.783 35.7945 29.8632 35.7945H26.9811H26.8585H23.9151C23.0566 35.7945 22.3208 36.4687 22.3208 37.388V38.859C22.3821 39.7784 23.0566 40.4526 23.9151 40.4526Z" fill="black"/>
    <path d="M50.7736 40.4526H53.6557H53.7783H56.6604C57.5189 40.4526 58.2547 39.7784 58.2547 38.859V37.388C58.2547 36.53 57.5802 35.7945 56.6604 35.7945H53.7783H53.6557H50.7736C49.9151 35.7945 49.1793 36.4687 49.1793 37.388V38.859C49.2406 39.7784 49.9151 40.4526 50.7736 40.4526Z" fill="black"/>
    <path d="M101.731 40.4526C102.467 40.4526 103.08 39.8397 103.08 39.1042V37.1429C103.08 36.4074 102.467 35.7945 101.731 35.7945H99.7689C99.033 35.7945 98.4198 36.4074 98.4198 37.1429V39.1042C98.4198 39.8397 99.033 40.3913 99.7689 40.3913H101.731V40.4526Z" fill="black"/>
    <path d="M117.675 40.4526H119.637C120.373 40.4526 120.986 39.8397 120.986 39.1042V37.1429C120.986 36.4074 120.373 35.7945 119.637 35.7945H117.675C116.939 35.7945 116.325 36.4074 116.325 37.1429V39.1042C116.325 39.901 116.939 40.4526 117.675 40.4526Z" fill="black"/>
    <path d="M128.59 35.8557H126.627C125.891 35.8557 125.278 36.4686 125.278 37.2041V39.1655C125.278 39.901 125.891 40.4526 126.627 40.4526H128.59C129.325 40.4526 129.939 39.8397 129.939 39.1042V37.1429C129.939 36.4074 129.325 35.8557 128.59 35.8557Z" fill="black"/>
    <path d="M21.217 40.33H19.2547C18.5189 40.33 17.9057 40.943 17.9057 41.6785V43.6398C17.9057 44.3753 18.5189 44.9269 19.2547 44.9269H21.217C21.9528 44.9269 22.566 44.314 22.566 43.5785V41.6172C22.5047 40.8817 21.9528 40.33 21.217 40.33Z" fill="black"/>
    <path d="M31.3349 41.8623V43.3333C31.3349 44.1914 32.0094 44.9269 32.9293 44.9269H35.8113V49.2786H32.9293C32.0708 49.2786 31.3349 49.9529 31.3349 50.8722V52.8336C31.2123 53.3239 30.8444 53.6304 30.4151 53.7529H26.9811H26.8585H23.9151C23.0566 53.7529 22.3208 54.4272 22.3208 55.3465V56.8175C22.3208 57.6756 22.9953 58.4111 23.9151 58.4111H26.7972H26.9811H31.3349H31.4576H34.3396C35.1981 58.4111 35.934 57.7369 35.934 56.8175V53.9368H40.2877V56.8175C40.2877 57.6756 40.9623 58.4111 41.8821 58.4111H44.7642V61.2918C44.7642 62.1499 45.4387 62.8854 46.3585 62.8854H47.8302C48.6887 62.8854 49.4245 62.2112 49.4245 61.2918V58.4111H53.7783V61.2918C53.7783 62.1499 54.4528 62.8854 55.3727 62.8854H56.8444C57.7028 62.8854 58.4387 62.2112 58.4387 61.2918V58.4111V58.2885V53.9368H61.3208C62.1793 53.9368 62.9151 53.2626 62.9151 52.3432V49.4625V49.3399V46.4592C62.9151 45.6011 62.2406 44.8656 61.3208 44.8656H59.8491C58.9906 44.8656 58.2547 45.5398 58.2547 46.4592V48.4206C58.1321 48.9109 57.7642 49.2173 57.3349 49.3399H53.9623H53.8396H50.9576C50.0991 49.3399 49.3632 50.0141 49.3632 50.9335V52.8949C49.2406 53.3852 48.8727 53.6917 48.4434 53.8142H45.0708V49.4625V49.3399V46.4592C45.0708 45.6011 44.3962 44.8656 43.4764 44.8656H40.5944V41.9849C40.5944 41.1268 39.9198 40.3913 39 40.3913H36.1179H35.9953H33.1132C32.0094 40.33 31.3349 41.0042 31.3349 41.8623Z" fill="black"/>
    <path d="M48.0142 40.33H46.0519C45.3161 40.33 44.7029 40.943 44.7029 41.6785V43.6398C44.7029 44.3753 45.3161 44.9269 46.0519 44.9269H48.0142C48.75 44.9269 49.3632 44.314 49.3632 43.5785V41.6172C49.3632 40.8817 48.75 40.33 48.0142 40.33Z" fill="black"/>
    <path d="M81.8632 44.9269H83.8255C84.5613 44.9269 85.1745 44.314 85.1745 43.5785V41.6172C85.1745 40.8817 84.5613 40.2687 83.8255 40.2687H81.8632C81.1274 40.2687 80.5142 40.8817 80.5142 41.6172V43.5785C80.5755 44.314 81.1274 44.9269 81.8632 44.9269Z" fill="black"/>
    <path d="M94.0047 43.6398C94.0047 44.3753 94.6179 44.9269 95.3538 44.9269H97.316C98.0519 44.9269 98.6651 44.314 98.6651 43.5785V41.6172C98.6651 40.8817 98.0519 40.2687 97.316 40.2687H95.3538C94.6179 40.2687 94.0047 40.8817 94.0047 41.6172V43.6398Z" fill="black"/>
    <path d="M125.462 41.6172C125.462 40.8817 124.849 40.2687 124.113 40.2687H122.151C121.415 40.2687 120.802 40.8817 120.802 41.6172V43.5785C120.802 44.314 121.415 44.8656 122.151 44.8656H124.113C124.849 44.8656 125.462 44.2527 125.462 43.5172V41.6172Z" fill="black"/>
    <path d="M23.9151 49.4012H26.7972H26.9811H29.8632C30.7217 49.4012 31.4576 48.727 31.4576 47.8076V46.3366C31.4576 45.4785 30.783 44.743 29.8632 44.743H26.9811H26.8585H23.9151C23.0566 44.743 22.3208 45.4173 22.3208 46.3366V47.8076C22.3821 48.727 23.0566 49.4012 23.9151 49.4012Z" fill="black"/>
    <path d="M119.391 49.4012C120.25 49.4012 120.986 48.727 120.986 47.8077V46.3367C120.986 45.4786 120.311 44.7431 119.391 44.7431H116.509V41.8623C116.509 41.0043 115.835 40.2688 114.915 40.2688H112.033V37.388C112.033 36.53 111.358 35.7945 110.439 35.7945H108.967C108.108 35.7945 107.373 36.4687 107.373 37.388V40.2688V40.3913V43.2721C107.373 44.1301 108.047 44.8656 108.967 44.8656H111.849V47.7464C111.849 48.6045 112.524 49.34 113.443 49.34H116.325H116.448H119.391V49.4012Z" fill="black"/>
    <path d="M79.1037 49.2787H76.2217H76.099H73.217C72.3585 49.2787 71.6226 49.9529 71.6226 50.8722V52.3433C71.6226 53.2013 72.2971 53.9368 73.217 53.9368H76.099V56.8176C76.099 57.6756 76.7736 58.4111 77.6934 58.4111H80.5754H80.6981H83.5802C84.4387 58.4111 85.1745 57.7369 85.1745 56.8176V55.3465C85.1745 54.4885 84.5 53.753 83.5802 53.753H80.6981V50.8722C80.6981 49.9529 79.9622 49.2787 79.1037 49.2787Z" fill="black"/>
    <path d="M108.722 53.8755H110.684C111.42 53.8755 112.033 53.2626 112.033 52.5271V50.5658C112.033 49.8303 111.42 49.2174 110.684 49.2174H108.722C107.986 49.2174 107.373 49.8303 107.373 50.5658V52.5271C107.373 53.2626 107.986 53.8755 108.722 53.8755Z" fill="black"/>
    <path d="M1.59434 58.3498H4.47641V61.2306C4.47641 62.0887 5.15094 62.8242 6.07075 62.8242H7.54245C8.40094 62.8242 9.13679 62.1499 9.13679 61.2306V58.3498H12.0189C12.8774 58.3498 13.6132 57.6756 13.6132 56.7563V53.8755H17.967H18.0896H20.9717C21.8302 53.8755 22.566 53.2013 22.566 52.282V50.811C22.566 49.9529 21.8915 49.2174 20.9717 49.2174H18.0896V46.3366C18.0896 45.4786 17.4151 44.7431 16.4953 44.7431H13.6132V41.8623C13.6132 41.0043 12.9387 40.2687 12.0189 40.2687H10.5472C9.68868 40.2687 8.95283 40.943 8.95283 41.8623V44.8043V44.9269V48.298C8.83019 48.7883 8.46226 49.0948 8.03302 49.2174H4.66038V44.8656V44.8043V41.9236C4.66038 41.0655 3.98585 40.33 3.06604 40.33H1.59434C0.735849 40.33 0 41.0043 0 41.9236V44.8043V44.9269V49.2787V49.4012V53.753V53.8755V56.7563C0 57.6756 0.674529 58.3498 1.59434 58.3498Z" fill="black"/>
    <path d="M70.151 53.753H67.2689H67.1462H64.2642C63.4057 53.753 62.6698 54.4272 62.6698 55.3466V58.2273V58.3499V61.2306C62.6698 62.0887 63.3444 62.8242 64.2642 62.8242H65.7359C66.5944 62.8242 67.3302 62.15 67.3302 61.2306V58.3499H70.2123C71.0708 58.3499 71.8066 57.6757 71.8066 56.7563V55.2853C71.7453 54.4272 71.0095 53.753 70.151 53.753Z" fill="black"/>
    <path d="M122.151 58.3498H124.113C124.849 58.3498 125.462 57.7369 125.462 57.0014V55.0401C125.462 54.3046 124.849 53.6917 124.113 53.6917H122.151C121.415 53.6917 120.802 54.3046 120.802 55.0401V57.0014C120.802 57.7369 121.415 58.3498 122.151 58.3498Z" fill="black"/>
    <path d="M100.014 62.8241H101.486C102.344 62.8241 103.08 62.1499 103.08 61.2306V58.3498H105.962C106.821 58.3498 107.557 57.6756 107.557 56.7562V55.2852C107.557 54.4272 106.882 53.6917 105.962 53.6917H103.08V49.3399V49.2173V46.3366C103.08 45.4785 102.406 44.743 101.486 44.743H100.014C99.1556 44.743 98.4198 45.4173 98.4198 46.3366V48.298C98.2971 48.7883 97.9292 49.0948 97.5 49.2173H94.1273H94.0047H89.6509V46.3366C89.6509 45.4785 88.9764 44.743 88.0566 44.743H86.5849C85.7264 44.743 84.9905 45.4173 84.9905 46.3366V49.2173V49.3399V52.2206C84.9905 53.0787 85.6651 53.8142 86.5849 53.8142H89.4669H89.5896H93.9434V56.695C93.9434 57.553 94.6179 58.2885 95.5377 58.2885H98.4198V61.1693C98.4811 62.0886 99.1556 62.8241 100.014 62.8241Z" fill="black"/>
    <path d="M108.967 62.8242H111.849H111.972H114.854C115.712 62.8242 116.448 62.1499 116.448 61.2306V59.7596C116.448 58.9015 115.774 58.166 114.854 58.166H111.972H111.849H108.967C108.108 58.166 107.373 58.8402 107.373 59.7596V61.2306C107.373 62.0887 108.108 62.8242 108.967 62.8242Z" fill="black"/>
    <path d="M128.59 58.2272H126.627C125.891 58.2272 125.278 58.8402 125.278 59.5757V61.537C125.278 62.2725 125.891 62.8241 126.627 62.8241H128.59C129.325 62.8241 129.939 62.2112 129.939 61.4757V59.5144C129.939 58.7789 129.325 58.2272 128.59 58.2272Z" fill="black"/>
    <path d="M28.1462 67.2985H30.1085C30.8444 67.2985 31.4576 66.6856 31.4576 65.9501V63.9887C31.4576 63.2532 30.8444 62.6403 30.1085 62.6403H28.1462C27.4104 62.6403 26.7972 63.2532 26.7972 63.9887V65.9501C26.8585 66.6856 27.4104 67.2985 28.1462 67.2985Z" fill="black"/>
    <path d="M61.4434 62.7016H59.4811C58.7453 62.7016 58.1321 63.3145 58.1321 64.05V66.0113C58.1321 66.7468 58.7453 67.2984 59.4811 67.2984H61.4434C62.1792 67.2984 62.7925 66.6855 62.7925 65.95V63.9887C62.7925 63.2532 62.1792 62.7016 61.4434 62.7016Z" fill="black"/>
    <path d="M32.8679 71.7728H35.75V74.6535C35.75 75.5116 36.4245 76.2471 37.3443 76.2471H38.816C39.6745 76.2471 40.4104 75.5729 40.4104 74.6535V71.7728V71.6502V67.2985H43.2924C44.1509 67.2985 44.8868 66.6243 44.8868 65.7049V64.2339C44.8868 63.3758 44.2123 62.6403 43.2924 62.6403H40.4104H40.2877H37.4057C36.5472 62.6403 35.8113 63.3145 35.8113 64.2339V66.1952C35.6887 66.6855 35.3208 66.992 34.8915 67.1146H32.9292C32.0707 67.1146 31.3349 67.7888 31.3349 68.7082V70.1792C31.3349 71.0373 32.0094 71.7728 32.8679 71.7728Z" fill="black"/>
    <path d="M44.7642 70.4243C44.7642 71.1598 45.3774 71.7115 46.1132 71.7115H48.0755C48.8113 71.7115 49.4245 71.0985 49.4245 70.363V68.4017C49.4245 67.6662 48.8113 67.0533 48.0755 67.0533H46.1132C45.3774 67.0533 44.7642 67.6662 44.7642 68.4017V70.4243Z" fill="black"/>
    <path d="M70.3963 67.1759H68.434C67.6981 67.1759 67.0849 67.7888 67.0849 68.5243V70.4856C67.0849 71.2211 67.6981 71.7728 68.434 71.7728H70.3963C71.1321 71.7728 71.7453 71.1598 71.7453 70.4243V68.463C71.7453 67.7275 71.1321 67.1759 70.3963 67.1759Z" fill="black"/>
    <path d="M82.1085 71.7728H83.5802C84.4387 71.7728 85.1745 71.0985 85.1745 70.1792V67.2984V67.1759V64.2951C85.1745 63.4371 84.5 62.7016 83.5802 62.7016H80.6981H80.5754H76.2217H76.099H73.217C72.3585 62.7016 71.6226 63.3758 71.6226 64.2951V65.7661C71.6226 66.6242 72.2971 67.3597 73.217 67.3597H76.099H76.2217H80.5754V70.2405C80.5754 71.0373 81.25 71.7728 82.1085 71.7728Z" fill="black"/>
    <path d="M91.0613 71.7727H93.9434H94.066H96.9481C97.8066 71.7727 98.5424 71.0985 98.5424 70.1792V67.2984V67.1759V64.2951C98.5424 63.4371 97.8679 62.7015 96.9481 62.7015H94.066V59.8208C94.066 58.9627 93.3915 58.2272 92.4717 58.2272H89.5896H89.5283H86.6462C85.7877 58.2272 85.0519 58.9015 85.0519 59.8208V61.2918C85.0519 62.1499 85.7264 62.8854 86.6462 62.8854H89.5283V67.2372V67.3597V70.2404C89.5283 71.0372 90.2028 71.7727 91.0613 71.7727Z" fill="black"/>
    <path d="M29.9245 76.2471C30.783 76.2471 31.5189 75.5729 31.5189 74.6535V73.1825C31.5189 72.3244 30.8443 71.5889 29.9245 71.5889H26.9811H26.8585H22.5047V67.2372V67.1146V62.7629V62.6403V59.7596C22.5047 58.9015 21.8302 58.166 20.9104 58.166H19.4387C18.5802 58.166 17.8443 58.8402 17.8443 59.7596V61.7209C17.7217 62.2112 17.3538 62.5177 16.9245 62.6403H14.9623C14.1038 62.6403 13.3679 63.3145 13.3679 64.2339V66.1952C13.2453 66.6855 12.8774 66.992 12.4481 67.1146H10.4858C9.62736 67.1146 8.89151 67.7888 8.89151 68.7082V70.1792C8.89151 71.0373 9.56604 71.7728 10.4858 71.7728H13.3679V74.6535C13.3679 75.5116 14.0425 76.2471 14.9623 76.2471H17.8443H17.967H22.3208V80.5988H17.967H17.8443H14.9623C14.1038 80.5988 13.3679 81.273 13.3679 82.1924V83.6634C13.3679 84.5215 14.0425 85.257 14.9623 85.257H17.8443H17.967H22.3208H22.4434H26.7972H26.9811H29.8632C30.7217 85.257 31.4575 84.5828 31.4575 83.6634V82.1924C31.4575 81.3343 30.783 80.5988 29.8632 80.5988H26.9811V76.2471H29.9245Z" fill="black"/>
    <path d="M89.6509 72.9373C89.6509 72.2018 89.0377 71.5889 88.3019 71.5889H86.3396C85.6037 71.5889 84.9905 72.2018 84.9905 72.9373V74.8986C84.9905 75.6341 85.6037 76.1858 86.3396 76.1858H88.3019C89.0377 76.1858 89.6509 75.5728 89.6509 74.8373V72.9373Z" fill="black"/>
    <path d="M56.967 80.5988H55.0047C54.2689 80.5988 53.6557 81.2117 53.6557 81.9472V83.9085C53.6557 84.644 54.2689 85.1957 55.0047 85.1957H56.967C57.7028 85.1957 58.316 84.5827 58.316 83.8472V81.8859C58.316 81.1504 57.7028 80.5988 56.967 80.5988Z" fill="black"/>
    <path d="M12.0189 85.0731H10.5472C9.68867 85.0731 8.95282 85.7473 8.95282 86.6667V89.5474V89.67V92.5507C8.95282 93.4088 9.62735 94.1443 10.5472 94.1443H12.0189C12.8773 94.1443 13.6132 93.4701 13.6132 92.5507V89.67V89.5474V86.6667C13.5519 85.7473 12.8773 85.0731 12.0189 85.0731Z" fill="black"/>
    <path d="M37.3444 89.67H40.2264H40.3491H44.7642V92.5507C44.7642 93.4088 45.4387 94.1443 46.3585 94.1443H47.8302C48.6887 94.1443 49.4245 93.4701 49.4245 92.5507V89.67H52.3066C53.1651 89.67 53.901 88.9958 53.901 88.0764V86.6054C53.901 85.7473 53.2264 85.0118 52.3066 85.0118H49.4245V80.6601H52.3066C53.1651 80.6601 53.901 79.9859 53.901 79.0665V76.1858H56.783C57.6415 76.1858 58.3774 75.5116 58.3774 74.5922V71.7727V71.6502V68.7082C58.3774 67.8501 57.7028 67.1146 56.783 67.1146H55.3113C54.4528 67.1146 53.717 67.7888 53.717 68.7082V70.6695C53.5944 71.1598 53.2264 71.4663 52.7972 71.5889H50.8349C49.9764 71.5889 49.2406 72.2631 49.2406 73.1825V75.1438C49.1179 75.6341 48.75 75.9406 48.3208 76.0632H44.9481H44.7642H41.8821C41.0236 76.0632 40.2878 76.7374 40.2878 77.6568V80.5375V80.6601V84.0311C40.1651 84.5215 39.7972 84.8279 39.3679 84.9505H37.4057C36.5472 84.9505 35.8113 85.6247 35.8113 86.5441V88.0151C35.8113 88.9345 36.4859 89.67 37.3444 89.67Z" fill="black"/>
    <path d="M124.113 85.0731H122.151C121.415 85.0731 120.802 85.686 120.802 86.4215V88.3828C120.802 89.1183 121.415 89.67 122.151 89.67H124.113C124.849 89.67 125.462 89.057 125.462 88.3215V86.3602C125.462 85.6247 124.849 85.0731 124.113 85.0731Z" fill="black"/>
    <path d="M1.59435 94.1443H3.06605C3.92454 94.1443 4.66039 93.4701 4.66039 92.5507V89.67V89.5474V85.1957H7.54247C8.40096 85.1957 9.13681 84.5215 9.13681 83.6021V80.7214V80.5988V76.2471V76.1245V73.2438C9.13681 72.3857 8.46228 71.6502 7.54247 71.6502H4.66039H4.53775H1.65567C0.797183 71.6502 0.0613334 72.3244 0.0613334 73.2438V76.1245V76.2471V80.5988V80.7214V85.0731V85.1957V89.5474V89.67V92.5507C1.26353e-05 93.4088 0.674541 94.1443 1.59435 94.1443Z" fill="black"/>
    <path d="M35.934 91.0797C35.934 90.2216 35.2594 89.4861 34.3396 89.4861H31.4576H31.3349H26.9811H26.8585H23.9151C23.0566 89.4861 22.3208 90.1603 22.3208 91.0797V92.5507C22.3208 93.4088 22.9953 94.1443 23.9151 94.1443H26.7972H26.9811H31.3349H31.4576H34.3396C35.1981 94.1443 35.934 93.4701 35.934 92.5507V91.0797Z" fill="black"/>
    <path d="M82.1085 94.1443H83.5802C84.4387 94.1443 85.1745 93.4701 85.1745 92.5507V89.67V89.5474V85.1957H88.0566C88.9151 85.1957 89.651 84.5215 89.651 83.6021V82.1311C89.651 81.273 88.9764 80.5375 88.0566 80.5375H85.1745V77.6568C85.1745 76.7987 84.5 76.0632 83.5802 76.0632H82.1085C81.25 76.0632 80.5142 76.7374 80.5142 77.6568V79.6181C80.3915 80.1084 80.0236 80.4149 79.5944 80.5375H76.2217V77.6568C76.2217 76.7987 75.5472 76.0632 74.6274 76.0632H71.7453H71.6227H67.2689V73.1825C67.2689 72.3244 66.5944 71.5889 65.6746 71.5889H64.2029C63.3444 71.5889 62.6085 72.2631 62.6085 73.1825V76.0632V76.1858V79.0665C62.6085 79.9246 63.283 80.6601 64.2029 80.6601H67.0849H67.2076H71.5613V85.0118H68.6793C67.8208 85.0118 67.0849 85.686 67.0849 86.6054V88.5667C66.9623 89.0571 66.5944 89.3635 66.1651 89.4861H62.7925H62.6698H59.7878C58.9293 89.4861 58.1934 90.1603 58.1934 91.0797V93.9604V94.083V96.9637C58.1934 97.8218 58.8679 98.5573 59.7878 98.5573H62.6698V102.909V103.032V105.912C62.6698 106.77 63.3444 107.506 64.2642 107.506H67.1462H67.2689H70.151C71.0095 107.506 71.7453 106.832 71.7453 105.912V104.441C71.7453 103.583 71.0708 102.848 70.151 102.848H67.2689V98.496V98.3734V94.0217H70.151C71.0095 94.0217 71.7453 93.3475 71.7453 92.4281V89.5474H76.0991H76.2217H80.5755V92.4281C80.5755 93.4088 81.25 94.1443 82.1085 94.1443Z" fill="black"/>
    <path d="M35.8113 97.2702C35.8113 98.0057 36.4245 98.5573 37.1604 98.5573H39.1227C39.8585 98.5573 40.4717 97.9444 40.4717 97.2089V95.2475C40.4717 94.512 39.8585 93.8991 39.1227 93.8991H37.1604C36.4245 93.8991 35.8113 94.512 35.8113 95.2475V97.2702Z" fill="black"/>
    <path d="M79.1037 94.0217H76.2217H76.099H73.217C72.3585 94.0217 71.6226 94.6959 71.6226 95.6153V98.496V98.6186V101.499C71.6226 102.357 72.2971 103.093 73.217 103.093H74.6887C75.5471 103.093 76.283 102.419 76.283 101.499V98.6186H79.1651C80.0236 98.6186 80.7594 97.9444 80.7594 97.025V95.554C80.6981 94.6959 79.9622 94.0217 79.1037 94.0217Z" fill="black"/>
    <path d="M55.0047 103.093H56.967C57.7028 103.093 58.316 102.48 58.316 101.744V99.7831C58.316 99.0476 57.7028 98.4347 56.967 98.4347H55.0047C54.2689 98.4347 53.6557 99.0476 53.6557 99.7831V101.744C53.717 102.48 54.2689 103.093 55.0047 103.093Z" fill="black"/>
    <path d="M103.08 99.7831C103.08 99.0476 102.467 98.4347 101.731 98.4347H99.7689C99.033 98.4347 98.4198 99.0476 98.4198 99.7831V101.744C98.4198 102.48 99.033 103.032 99.7689 103.032H101.731C102.467 103.032 103.08 102.419 103.08 101.683V99.7831Z" fill="black"/>
    <path d="M40.4104 104.257C40.4104 103.522 39.7972 102.909 39.0613 102.909H37.0991C36.3632 102.909 35.75 103.522 35.75 104.257V106.219C35.75 106.954 36.3632 107.506 37.0991 107.506H39.0613C39.7972 107.506 40.4104 106.893 40.4104 106.157V104.257Z" fill="black"/>
    <path d="M46.2972 107.567H49.1793H49.3019H52.184C53.0425 107.567 53.7783 106.893 53.7783 105.974V104.503C53.7783 103.645 53.1038 102.909 52.184 102.909H49.3019H49.1793H46.2972C45.4387 102.909 44.7029 103.583 44.7029 104.503V105.974C44.7642 106.832 45.4387 107.567 46.2972 107.567Z" fill="black"/>
    <path d="M40.2878 110.693C40.2878 111.429 40.901 111.98 41.6368 111.98H43.5991C44.3349 111.98 44.9481 111.367 44.9481 110.632V108.67C44.9481 107.935 44.3349 107.322 43.5991 107.322H41.6368C40.901 107.322 40.2878 107.935 40.2878 108.67V110.693Z" fill="black"/>
    <path d="M107.557 112.042H110.439C111.297 112.042 112.033 111.367 112.033 110.448V107.567H114.915C115.774 107.567 116.509 106.893 116.509 105.974V104.503C116.509 103.645 115.835 102.909 114.915 102.909H112.033V98.5573H116.387H116.509H120.863H120.986H123.868C124.726 98.5573 125.462 97.8831 125.462 96.9637V95.4927C125.462 94.6346 124.788 93.8991 123.868 93.8991H120.986H120.802H116.509H116.387H112.033V89.5474H114.915C115.774 89.5474 116.509 88.8732 116.509 87.9538V86.4828C116.509 85.6247 115.835 84.8892 114.915 84.8892H112.033V80.5375V80.4149V76.0632H116.387H116.509H120.863H120.986H125.34V80.4149V80.5375V83.4182C125.34 84.2763 126.014 85.0118 126.934 85.0118H128.406C129.264 85.0118 130 84.3376 130 83.4182V80.5375V80.4149V76.0632V75.9406V71.7728V71.6502V68.7082C130 67.8501 129.325 67.1146 128.406 67.1146H125.524V64.2339C125.524 63.3758 124.849 62.6403 123.929 62.6403H122.458C121.599 62.6403 120.863 63.3145 120.863 64.2339V66.1952C120.741 66.6855 120.373 66.992 119.943 67.1146H116.509H116.387H113.443C112.585 67.1146 111.849 67.7888 111.849 68.7082V70.6695C111.726 71.1599 111.358 71.4663 110.929 71.5889H108.967C108.108 71.5889 107.373 72.2631 107.373 73.1825V75.1438C107.25 75.6342 106.882 75.9406 106.453 76.0632H104.491C103.632 76.0632 102.896 76.7374 102.896 77.6568V80.5375V80.6601V83.5408C102.896 84.3989 103.571 85.1344 104.491 85.1344H107.373V88.5055C107.25 88.9958 106.882 89.3022 106.453 89.4248H103.08V86.5441C103.08 85.686 102.406 84.9505 101.486 84.9505H98.6038H98.4811H95.5991C94.7406 84.9505 94.0047 85.6247 94.0047 86.5441V88.5055C93.8821 88.9958 93.5142 89.3022 93.0849 89.4248H91.1226C90.2642 89.4248 89.5283 90.099 89.5283 91.0184V93.8991V94.0217V97.3928C89.4057 97.8831 89.0377 98.1896 88.6085 98.3121H86.6462C85.7877 98.3121 85.0519 98.9864 85.0519 99.9057V101.867C84.9292 102.357 84.5613 102.664 84.1321 102.786H82.1698C81.3113 102.786 80.5755 103.461 80.5755 104.38V107.261V107.383V110.754C80.4528 111.245 80.0849 111.551 79.6557 111.674H77.6934C76.8349 111.674 76.0991 112.348 76.0991 113.267V116.148V116.271V119.151C76.0991 120.009 76.7736 120.745 77.6934 120.745H80.5755H80.6981H83.5802C84.4387 120.745 85.1745 120.071 85.1745 119.151V116.516V116.393V112.042H89.5283V114.922C89.5283 115.78 90.2028 116.516 91.1226 116.516H94.0047V119.397C94.0047 120.255 94.6792 120.99 95.5991 120.99H98.4811V125.342H95.5991C94.7406 125.342 94.0047 126.016 94.0047 126.935V128.406C94.0047 129.265 94.6792 130 95.5991 130H98.4811H98.6038H101.486C102.344 130 103.08 129.326 103.08 128.406V125.526V125.403V121.051V120.806V117.926C103.08 117.067 102.406 116.332 101.486 116.332H98.6038V111.98H102.958V114.861C102.958 115.719 103.632 116.455 104.552 116.455H106.024C106.882 116.455 107.618 115.78 107.618 114.861V112.042H107.557ZM98.6038 107.383H98.4811H94.1274V103.032V102.909V98.5573V98.4347V94.083H98.4811H98.6038H102.958H103.08H107.434V98.4347V98.5573V102.909V103.032V106.403C107.311 106.893 106.943 107.199 106.514 107.322H103.142H103.019H98.6038V107.383Z" fill="black"/>
    <path d="M115.16 111.858H113.198C112.462 111.858 111.849 112.471 111.849 113.206V115.167C111.849 115.903 112.462 116.454 113.198 116.454H115.16C115.896 116.454 116.509 115.842 116.509 115.106V113.145C116.509 112.471 115.896 111.858 115.16 111.858Z" fill="black"/>
    <path d="M71.7453 116.516V116.393V113.451C71.7453 112.593 71.0708 111.858 70.151 111.858H67.2689H67.1463H62.7925H62.6698H59.7878C58.9293 111.858 58.1934 112.532 58.1934 113.451V114.922C58.1934 115.78 58.8679 116.516 59.7878 116.516H62.6698V120.868V120.99V123.871C62.6698 124.729 63.3444 125.464 64.2642 125.464H65.7359C66.5944 125.464 67.3302 124.79 67.3302 123.871V120.99H70.2123C71.0708 120.99 71.8066 120.316 71.8066 119.397V116.516H71.7453Z" fill="black"/>
    <path d="M125.462 116.516V116.393V113.451C125.462 112.593 124.788 111.858 123.868 111.858H122.396C121.538 111.858 120.802 112.532 120.802 113.451V115.413C120.679 115.903 120.311 116.209 119.882 116.332H117.92C117.061 116.332 116.325 117.006 116.325 117.926V119.887C116.203 120.377 115.835 120.684 115.406 120.806H112.033V117.926C112.033 117.067 111.358 116.332 110.439 116.332H108.967C108.108 116.332 107.373 117.006 107.373 117.926V120.806V120.929V125.281V125.403V128.284C107.373 129.142 108.047 129.877 108.967 129.877H111.849H111.972H114.854C115.712 129.877 116.448 129.203 116.448 128.284V125.403H119.33C120.189 125.403 120.925 124.729 120.925 123.81V120.929H123.807C124.665 120.929 125.401 120.255 125.401 119.335V116.516H125.462Z" fill="black"/>
    <path d="M47.7689 120.806H44.8868V117.926C44.8868 117.067 44.2123 116.332 43.2924 116.332H41.8207C40.9623 116.332 40.2264 117.006 40.2264 117.926V120.806V120.929V123.81C40.2264 124.668 40.9009 125.403 41.8207 125.403H44.7641H44.8868H47.7689C48.6274 125.403 49.3632 124.729 49.3632 123.81V122.339C49.3632 121.542 48.6887 120.806 47.7689 120.806Z" fill="black"/>
    <path d="M58.316 120.99V120.806V117.926C58.316 117.067 57.6415 116.332 56.7217 116.332H53.8396V113.451C53.8396 112.593 53.1651 111.858 52.2453 111.858H49.3632H49.2406H46.3585C45.5 111.858 44.7642 112.532 44.7642 113.451V114.922C44.7642 115.78 45.4387 116.516 46.3585 116.516H49.2406V119.397C49.2406 120.255 49.9151 120.99 50.8349 120.99H53.717V123.871C53.717 124.729 54.3915 125.464 55.3113 125.464H56.783C57.6415 125.464 58.3774 124.79 58.3774 123.871V120.99H58.316Z" fill="black"/>
    <path d="M74.6274 120.806H73.1557C72.2972 120.806 71.5613 121.48 71.5613 122.4V125.281V125.403V128.284C71.5613 129.142 72.2359 129.877 73.1557 129.877H74.6274C75.4859 129.877 76.2217 129.203 76.2217 128.284V125.403V125.281V122.4C76.2217 121.542 75.4859 120.806 74.6274 120.806Z" fill="black"/>
    <path d="M88.0566 120.806H86.5849C85.7264 120.806 84.9905 121.48 84.9905 122.4V125.281V125.403V128.284C84.9905 129.142 85.6651 129.877 86.5849 129.877H88.0566C88.9151 129.877 89.6509 129.203 89.6509 128.284V125.403V125.281V122.4C89.6509 121.542 88.9151 120.806 88.0566 120.806Z" fill="black"/>
    <path d="M128.59 120.806H126.627C125.891 120.806 125.278 121.419 125.278 122.155V124.116C125.278 124.851 125.891 125.403 126.627 125.403H128.59C129.325 125.403 129.939 124.79 129.939 124.055V122.093C129.939 121.419 129.325 120.806 128.59 120.806Z" fill="black"/>
    <path d="M61.4434 125.281H59.4811C58.7453 125.281 58.1321 125.893 58.1321 126.629V128.59C58.1321 129.326 58.7453 129.877 59.4811 129.877H61.4434C62.1792 129.877 62.7925 129.265 62.7925 128.529V126.568C62.7925 125.893 62.1792 125.281 61.4434 125.281Z" fill="black"/>
    <path d="M11.2217 32.3621C20.2358 32.3621 12.0802 32.3621 21.0943 32.3621C30.1085 32.3621 32.316 30.2169 32.316 21.1457C32.316 12.1358 32.316 20.2876 32.316 11.2164C32.316 2.20651 30.1698 0 21.0943 0C12.0802 0 20.2358 0 11.2217 0C2.14623 0.0612919 0 2.20651 0 11.2777C0 16.3036 0 12.1358 0 21.207C0 30.2169 2.14623 32.3621 11.2217 32.3621ZM4.59906 11.2777C4.59906 6.86469 5.21226 5.82273 5.45755 5.57756C5.70283 5.33239 6.8066 4.71947 11.1604 4.71947H21.033C25.4481 4.71947 26.4906 5.33239 26.7358 5.57756C26.9811 5.82273 27.5943 6.92598 27.5943 11.2777V21.207C27.5943 25.62 26.9811 26.662 26.7358 26.9071C26.4906 27.1523 25.3868 27.7652 21.033 27.7652H11.2217C6.8066 27.7652 5.76415 27.1523 5.51887 26.9071C5.27359 26.662 4.66038 25.5587 4.66038 21.207V11.2777H4.59906Z" fill="black"/>
    <path d="M14.0425 23.107C17.9057 23.107 14.4104 23.107 18.2736 23.107C22.1368 23.107 23.0566 22.1876 23.0566 18.3263C23.0566 14.4649 23.0566 17.9585 23.0566 14.0971C23.0566 10.2357 22.1368 9.31636 18.2736 9.31636C14.4104 9.31636 17.9057 9.31636 14.0425 9.31636C10.1792 9.31636 9.25943 10.2357 9.25943 14.0971C9.25943 16.2423 9.25943 14.4649 9.25943 18.3263C9.25943 22.1876 10.1792 23.107 14.0425 23.107Z" fill="black"/>
    <path d="M111.481 23.107C115.344 23.107 111.849 23.107 115.712 23.107C119.575 23.107 120.495 22.1876 120.495 18.3263C120.495 14.4649 120.495 17.9585 120.495 14.0971C120.495 10.2357 119.575 9.31636 115.712 9.31636C111.849 9.31636 115.344 9.31636 111.481 9.31636C107.618 9.31636 106.698 10.2357 106.698 14.0971C106.698 16.2423 106.698 14.4649 106.698 18.3263C106.698 22.1876 107.557 23.107 111.481 23.107Z" fill="black"/>
    <path d="M108.66 32.3621C117.675 32.3621 109.519 32.3621 118.533 32.3621C127.547 32.3621 129.755 30.2169 129.755 21.1457C129.755 12.1358 129.755 20.2876 129.755 11.2164C129.755 2.20651 127.609 0 118.533 0C109.519 0 117.675 0 108.66 0C99.6462 0 97.4387 2.14522 97.4387 11.2164C97.4387 16.2423 97.4387 12.0745 97.4387 21.1457C97.4387 30.2169 99.5849 32.3621 108.66 32.3621ZM102.038 11.2777C102.038 6.86469 102.651 5.82273 102.896 5.57756C103.142 5.33239 104.245 4.71947 108.599 4.71947H118.472C122.887 4.71947 123.929 5.33239 124.175 5.57756C124.42 5.82273 125.033 6.92598 125.033 11.2777V21.207C125.033 25.62 124.42 26.662 124.175 26.9071C123.929 27.1523 122.825 27.7652 118.472 27.7652H108.599C104.184 27.7652 103.142 27.1523 102.896 26.9071C102.651 26.662 102.038 25.5587 102.038 21.207V11.2777Z" fill="black"/>
    <path d="M21.0943 97.454C12.0802 97.454 20.2358 97.454 11.2217 97.454C2.20755 97.454 0 99.5993 0 108.67C0 113.696 0 109.529 0 118.6C0 127.61 2.14623 129.816 11.2217 129.816C20.2358 129.816 12.0802 129.816 21.0943 129.816C30.1085 129.816 32.316 127.671 32.316 118.6C32.316 109.59 32.316 117.742 32.316 108.67C32.316 99.5993 30.1698 97.454 21.0943 97.454ZM27.6557 118.538C27.6557 122.951 27.0425 123.993 26.7972 124.239C26.5519 124.484 25.4481 125.097 21.0943 125.097H11.2217C6.8066 125.097 5.76415 124.484 5.51887 124.239C5.27359 123.993 4.66038 122.89 4.66038 118.538V108.609C4.66038 104.196 5.27359 103.154 5.51887 102.909C5.76415 102.664 6.86792 102.051 11.2217 102.051H21.0943C25.5094 102.051 26.5519 102.664 26.7972 102.909C27.0425 103.154 27.6557 104.257 27.6557 108.609V118.538V118.538Z" fill="black"/>
    <path d="M18.2736 106.648C14.4104 106.648 17.9057 106.648 14.0425 106.648C10.1792 106.648 9.25943 107.567 9.25943 111.429C9.25943 113.574 9.25943 111.796 9.25943 115.658C9.25943 119.519 10.1792 120.438 14.0425 120.438C17.9057 120.438 14.4104 120.438 18.2736 120.438C22.1368 120.438 23.0566 119.519 23.0566 115.658C23.0566 111.796 23.0566 115.29 23.0566 111.429C23.0566 107.567 22.1368 106.648 18.2736 106.648Z" fill="black"/>
</svg>
