<svg xmlns="http://www.w3.org/2000/svg" xmlns:xlink="http://www.w3.org/1999/xlink" width="318" height="248"><defs><path id="a" d="M.83 0h247.999v248H.83z"/><path id="c" d="M0 9.484V.022h12.481v9.462H0z"/></defs><g fill="none" fill-rule="evenodd"><g transform="translate(36)"><mask id="b" fill="#fff"><use xlink:href="#a"/></mask><path fill="#081428" d="M248.83 124c0 68.483-55.517 124-124 124S.83 192.483.83 124 56.347 0 124.83 0s124 55.517 124 124" mask="url(#b)"/></g><path fill="#1E5AAA" d="M155.881 225.783a3.377 3.377 0 1 1-6.753-.002 3.377 3.377 0 0 1 6.754.002m-30.16-51.188a2.291 2.291 0 1 1-4.584 0 2.292 2.292 0 1 1 4.584 0m133.073-20.952a2.79 2.79 0 1 1-5.582 0 2.79 2.79 0 0 1 5.582 0M125.919 15.911a1.723 1.723 0 1 1-3.447 0 1.723 1.723 0 0 1 3.447 0"/><path fill="#78C7F0" d="M116.516 34.058a2.57 2.57 0 1 1-5.14-.001 2.57 2.57 0 0 1 5.14.001M266.153 87.72a1.674 1.674 0 1 1-3.349.002 1.674 1.674 0 0 1 3.349-.002m-98.797 105.155a1.675 1.675 0 1 1-3.35 0 1.675 1.675 0 0 1 3.35 0m52.325-139.375a1.442 1.442 0 1 1-2.883-.002 1.442 1.442 0 0 1 2.883.002m24.953 37.717a1.354 1.354 0 1 1-2.707.001 1.354 1.354 0 0 1 2.707 0M91.631 161.72a1.354 1.354 0 1 1-2.708 0 1.354 1.354 0 0 1 2.707 0"/><path fill="#1E5AAA" d="M219.484 70.43a1.967 1.967 0 1 1-3.934 0 1.967 1.967 0 0 1 3.934 0m-7.35-37.797a1.062 1.062 0 1 1-2.124 0 1.062 1.062 0 0 1 2.124 0M71.144 88.36a1.063 1.063 0 1 1-2.125-.001 1.063 1.063 0 0 1 2.125.001m16.617 95.463a1.061 1.061 0 1 1-2.122.001 1.061 1.061 0 0 1 2.122-.001"/><path fill="#1057AA" d="M129.243 202.792a1.967 1.967 0 1 1-3.933 0 1.967 1.967 0 0 1 3.933 0"/><path fill="#1E5AAA" d="M248.714 59.298a1.967 1.967 0 1 1-3.933-.002 1.967 1.967 0 0 1 3.933.002"/><path fill="#1057AA" d="M87.919 110.7a2.098 2.098 0 1 1-4.197.001 2.098 2.098 0 0 1 4.197-.001"/><path fill="#143B78" d="M206.173 213.624a4.803 4.803 0 1 1-9.606 0 4.803 4.803 0 0 1 9.606 0"/><path fill="#1E5AAA" d="M263.247 127.879a1.364 1.364 0 1 1-2.728 0 1.364 1.364 0 0 1 2.728 0m-64.819 62.278a1.364 1.364 0 0 1-2.728 0 1.364 1.364 0 0 1 2.728 0m-47.82-179.283a1.967 1.967 0 1 1-3.935-.001 1.967 1.967 0 0 1 3.935 0"/><path fill="#0D3C80" d="M61.72 127.412a2.15 2.15 0 1 1-4.302-.002 2.15 2.15 0 0 1 4.301.002m80.442-90.658a1.703 1.703 0 1 1-3.406 0 1.703 1.703 0 0 1 3.406 0M88.708 57.55a2.396 2.396 0 1 1-4.792 0 2.396 2.396 0 0 1 4.792 0m150.424 59.512a1.816 1.816 0 1 1-3.631 0 1.816 1.816 0 0 1 3.631 0m-4.167-77.796a1.4 1.4 0 1 1-2.801 0 1.4 1.4 0 0 1 2.801 0"/><path fill="#D2F0FA" d="M117.725 128.682h-9.553c-2.487 0-3.688 4.874-1.043 9.705 2.2 4.012 9.228 7.655 10.596 4.01a568.302 568.302 0 0 0 3.652-10.109l-3.652-3.606z"/><path fill="#78C7F0" d="M118.82 133.037s-4.548 9.53-3.98 9.655c.64.18 2.623.362 2.885-.296a960.954 960.954 0 0 0 3.653-10.107c.142-.401-.758-1.69-.758-1.69l-1.224-.057-.576 2.495z"/><path fill="#1E5AAA" d="M108.174 137.504c1.2 2.35 4.588 5.016 7.404 5.317.797.085 1.52-.3 1.79-.996.49-1.26 3.062-8.334 3.064-8.34l-3.504-1.666s-6.485 4.163-8.754 5.685"/><path fill="#78C7F0" d="M116.342 128.917c-.833.694-.56 2.396.61 3.802 1.17 1.405 2.794 1.98 3.628 1.287.833-.693.561-2.396-.61-3.801-1.17-1.405-2.794-1.981-3.628-1.288"/><path fill="#1E5AAA" d="M120.265 125.707l-.396.05c-.247.03-.35 2.154-.32 2.767.022.418-.486.412-1.057.497-.523.079-.993.268-1.395.678-.523.533-.088 1.768.941 2.73 1.031.96 2.28 1.298 2.79.752a.808.808 0 0 0 .08-.105v-.001l.018-.034.521-.958a.519.519 0 0 0 .025-.047l.011-.02v-.001c.443-.815 2.202-2.138 2.202-2.138l-3.42-4.17z"/><path fill="#187CB6" d="M184.159 105.743c-6.791-15.958-20.045-38.657-20.045-38.657-27.49-10.596-53.694-20.013-56.246 10.3-2.17 25.78 12.72 52.983 25.893 67.3 7.724 8.397 15.45 15.263 22.662 19.763 2.12-.323 4.367-.5 6.694-.5 3.464 0 6.75.387 9.705 1.078.035-1.288.754-2.31.754-2.31s4.269-.033 5.25 1.353c.47.664-.221 2.018-.736 2.658.99.424 1.91.889 2.75 1.39 2.184-1.354 4.143-3.366 5.832-6.115 9.227-15.025 4.278-40.302-2.513-56.26"/><path fill="#78C7F0" d="M184.159 105.743c-6.791-15.958-20.045-38.657-20.045-38.657-27.49-10.596-53.694-20.013-56.246 10.3-2.17 25.78 12.72 52.983 25.893 67.3 7.724 8.397 15.45 15.263 22.662 19.763 2.12-.323 4.367-.5 6.694-.5 3.464 0 6.75.387 9.705 1.078.035-1.288.754-2.31.754-2.31s4.269-.033 5.25 1.353c.47.664-.221 2.018-.736 2.658.99.424 1.91.889 2.75 1.39 2.184-1.354 4.143-3.366 5.832-6.115 9.227-15.025 4.278-40.302-2.513-56.26"/><path fill="#1E5AAA" d="M115.31 60.258c.136-.105.276-.2.416-.299-.14.1-.28.194-.417.298M160.224 99.6l14.467-13.37c-5.488-10.427-10.577-19.145-10.577-19.145-19.177-7.39-37.719-14.194-48.052-7.35 11.165 6.62 35.243 21.778 44.162 39.865m-46.09-38.34c.102-.096.2-.198.306-.292-.106.093-.204.195-.307.292m-1.744 1.952c.094-.125.191-.242.287-.363-.096.12-.193.238-.287.363m1.162-1.374c-.118.123-.232.25-.348.38.116-.13.23-.257.348-.38m-1.882 2.414l-.05.07.006.004.044-.074"/><path fill="#D2F0FA" d="M116.051 59.727c-4.477 2.968-7.412 8.496-8.184 17.66-1.367 16.24 4.038 33.045 11.518 46.838 22.443 8.548 49.254-2.403 42.4-21.008-7.248-19.672-33.838-36.435-45.734-43.49"/><path stroke="#FF3C1E" stroke-width="2.1" d="M174.225 65.08s-18.983-4.965-23.167-4.812"/><path stroke="#76281E" stroke-width="1.6" d="M174.225 64.677s-18.983-4.966-23.167-4.812"/><path fill="#76281E" d="M152.298 51.343l.697 2.304 3.59.964-1.286-2.786z"/><path fill="#AC281E" d="M145.833 57.938l-.602-2.527 7.068-4.069.697 2.304z"/><path fill="#FF3C1E" d="M145.833 57.938l2.647 1.384 8.106-4.711-3.59-.965z"/><path fill="#AC281E" d="M154.22 56.766l-1.909-1.422-4.613 2.853 1.761 2.432 2.781-.8a.809.809 0 0 0 .446-.32l1.601-2.333a.3.3 0 0 0-.068-.41"/><path fill="#76281E" d="M147.361 60.553l-1.756-.338-4.725 2.976 3.131 2.177 1.122.208 1.048-4.007z"/><path fill="#AC281E" d="M142.414 62.718s2.309-.08 2.836-.403c.527-.323 2.11-1.762 2.11-1.762l-1.365-.262-3.581 2.427z"/><path fill="#AC281E" d="M146.133 61.566l2.841-1.26a3.524 3.524 0 0 1 3.446.326l1.814 1.262-4.524 2.777-3.577-3.105z"/><path fill="#76281E" d="M142.198 101.756l5.109 2.17-.424 8.97 5.042 3.449 4.51-3.344-9.446-14.754z"/><path fill="#AC281E" d="M143.137 87.233l-4.442 2.093 3.503 12.429 4.692-2.501zM148.051 102.97l-2.018 1.273.849 8.652 5.024-3.542z"/><path fill="#D2F0FA" d="M228.776 202.678l7.073 11.292a.84.84 0 0 0 .626.39l.758.078c.095.01.178.07.216.159l.753 1.743-.278.469a.62.62 0 0 0 .004.637l6.723 11.01c.106.174.349.2.488.052l3.728-3.95a.89.89 0 0 1 .647-.278h1.545c.256 0 .508-.075.724-.213l1.958-1.258.639.865a.921.921 0 0 0 .743.376.23.23 0 0 0 .217-.302l-.095-.285-7.52-12.98-18.949-7.805z"/><path fill="#78C7F0" d="M229.393 201.651s5.387 8.403 7.14 11.117c.208.321.573.311.85.048l2.942-2.78c.287-.273.656-.44 1.05-.478l2.866-.27a2.35 2.35 0 0 0 1.151-.434l.482-.349-7.695-11.273-3.634-.472-3.604 2.585-1.548 2.306z"/><path fill="#1E5AAA" d="M234.721 198.113l6.678-3.381 9.162 10.14 3.912-3.417 2.086 3.494-5.245 1.653 5.134 11.798-2.628 3.018-2.211 1.75z"/><path fill="#143B78" d="M200.807 112.441l.176.787 45.497 74.834-9.777 6.37 5.72 8.331 10.614 16.844 2.303 4.142.811-1.598c.178-.353.417-.672.705-.943l5.811-4.982c.42-.359.524-.968.245-1.445l-14.524-24.979-.336-2.292-45.554-74.759-1.23-.707"/><path fill="#FF3C1E" d="M178.691 157.232l-12.604-43.481.962-.23 12.603 43.482z"/><path fill="#AC281E" d="M178.791 157.554l-.413-1.403.74-.99-12.12-41.683.659-.244 13.018 44.207-.216.716z"/><path fill="#AC281E" d="M180.243 158.192l7.013-31.481 1.832-.757-7.315 32.718z"/><path fill="#AC281E" d="M184.833 158.627c-.051-.277-.303-.556-.707-.38-.403.178-3.64.2-6.435-1.336-.504-.278-1.39-.472-1.818.027-.428.499-.72.955-1.05 1.263-.33.31-1.752 1.072-1.772 1.609-.021.536.577 1.277.577 1.277l-.68.536.68 1.753 9.61-.985-.184-2.585 1.779-1.18z"/><path fill="#FF3C1E" d="M184.833 158.627c.049.187-1.226 1.312-1.226 1.312l.025.604-4.96-1.373a1.645 1.645 0 0 0-1.27.164l-2.465 1.435-1.31.318-.124-.401a1.031 1.031 0 0 1 .557-1.243l3.47-1.583a1.637 1.637 0 0 1 1.262-.04l3.344 1.284a2.253 2.253 0 0 0 1.718-.043l.979-.434zm-6.81 2.413l-4.396 2.336 5.074 1.379c.32.087.663.037.945-.138l3.592-2.226-4.315-1.427a1.157 1.157 0 0 0-.9.076"/><path fill="#D2F0FA" d="M238.771 196.924l-.592.309 5.88 9.34a.933.933 0 0 1 .13.656.706.706 0 0 1-.97.53l-13.458-5.643a.332.332 0 0 1-.099-.541l4.883-4.814-6.239 2.692a.551.551 0 0 0-.332.492l-.007.286a.39.39 0 0 1-.306.372l-.757.164a.388.388 0 0 1-.412-.173l-42.978-69.05-1.033 1.825 43.376 69.484a.57.57 0 0 0 .81.164l.035-.025a1.899 1.899 0 0 1 1.865-.176l12.121 5.365a4.609 4.609 0 0 0 2.536.348c.347-.05.7-.124.992-.23.077-.027.151-.06.222-.096.608-.304.81-1.078.444-1.653l-6.11-9.626z"/><path fill="#AC281E" d="M189.337 122.348l45.209 74.412-3 .908a.367.367 0 0 1-.417-.156L185.72 125.49l3.617-3.142z"/><path fill="#76281E" d="M193.336 118.873l-10.049 8.732-18.189-15.591 8.429-12.102 22.743 16.436z"/><path fill="#FF3C1E" d="M155.476 61.013l-1.437.715-3.565 2.164s-.973-2.565-3.03-2.585c-1.419-.014-2.827 1.075-2.902 2.98-.066 1.706 1.151 2.96 1.151 2.96l-6.813 4.778a.652.652 0 0 0-.26.738l10.438 33.431c.051.165.14.316.26.441l10.675 11.208a.466.466 0 0 0 .59.07l11.95-7.673-17.057-49.227z"/><path fill="#AC281E" d="M155.476 61.013l-4.906 3.63 10.4 34.734 11.563 10.863.994-10.329 18.155 15.165 1.128 3.646c.07.225.347.304.525.15l10.764-9.266a.326.326 0 0 0 .108-.306l-2.418-13.16-21.39-27.376-6.28-4.415-9.028 6.476-9.615-9.812z"/><path fill="#AC281E" d="M175.616 28.224l-1.497 36.125 3.337 2.347 1.534-37.343z"/><path fill="#D2F0FA" d="M192.498 124.948l42.167 67.547-.188 2.369 3.457-2.256-1.731-.916-42.512-67.456z"/><path fill="#78C7F0" d="M235.153 192.026l.108 2.326 2.672-1.744-1.73-.916-42.512-67.456-.724.433zM243.768 211.535c-1.564.533-4.14 4.223-4.994 5.24a.533.533 0 0 0-.046.625l5.987 10.047a.39.39 0 0 0 .608.073s2.88-2.874 3.858-3.812c.877-.842 1.604-.564 2.322-.696l-7.735-11.477z"/><path fill="#D2F0FA" d="M242.372 209.465c.85-.051 2.349-.053 2.349-.053l.128.338 1.31-.643a.538.538 0 0 1 .669.16l.165.219a.38.38 0 0 1-.14.573c-.745.353-2.293 1.09-3.085 1.476-.827.404-2.02-2.033-1.396-2.07m11.676 11.962l-6.08-10.804a.24.24 0 0 0-.358-.07l-.386.304a.24.24 0 0 0-.058.313l5.598 9.419a.304.304 0 0 1-.105.418l-1.34.975a.435.435 0 0 0-.107.597l.397.588 2.44-1.74z"/><path fill="#FF3C1E" d="M142 59.903l-.247-.611s-1.084-.293-1.723-.456a82.08 82.08 0 0 0-1.843-.452 1.778 1.778 0 0 0-.037.208c-.27 2.206 2.323 5.93 5.862 6.777-.036-.328-1.331-1.145-2.198-1.82a.18.18 0 0 1 .019-.296c.948-.558 3.713-2.299 4.608-2.877-.217-.216-1.608-.359-1.831-.573-.431-.414-2.158.504-2.61.1"/><path fill="#AC281E" d="M146.593 59.183l-1.867-.82a1.736 1.736 0 0 0-1.593.1l-2.873 1.723a.542.542 0 0 0-.227.66l.55 1.43c.05.125.2.177.316.106l3.811-2.338 2.313.27-.43-1.13z"/><path fill="#76281E" d="M146.593 59.183l-1.867-.82a1.73 1.73 0 0 0-.782-.145l.766 1.826 2.651.508-.768-1.369zm6.093.325l1.602-2.332a.301.301 0 0 0-.069-.41l-1.908-1.422-.26 3.864c-.022.322.354.546.6.339a.242.242 0 0 0 .035-.038"/><path fill="#D2F0FA" d="M245.413 201.48s-.32 3.45-.441 4.722c-.02.196.067.633.368.632.29 0 .439-.274.452-.446.066-.958.289-3.837.289-3.837l-.668-1.072zm-4.45-10.25l-.248.01a.651.651 0 0 0-.552.338c-.025.048-.089.167-.099.235-.017.112.065.141.178.144 0 0 .806-.048 1.073-.082a.373.373 0 0 0 .133-.048c.844-.519 2.99-2.374 2.99-2.374a.894.894 0 0 1 .693-.186.705.705 0 0 1 .546.42l.008.02c.126.294.456.521.773.476.518-.073.963-.483.963-.483a.152.152 0 0 1 .091-.03l.514.005a.151.151 0 0 0 .123-.242l-.505-.673-.495-.657a.245.245 0 0 0-.362-.033l-.492.38-.088-.21a.15.15 0 0 0-.148-.123h-.971a.312.312 0 0 0-.306.253l-.036.185a.417.417 0 0 1-.169.263l-3.224 2.281a.723.723 0 0 1-.39.131"/><path fill="#1E5AAA" d="M255.047 205.159c-.058-.947-.002-1.471-.46-1.78-.456-.31-1.636-.23-1.636-.23l-2.39 1.723-1.085 1.674.633 1.255 4.938-2.642z"/><path fill="#D2F0FA" d="M250.29 205.147l-.7 1.14c-.216.354-.22.8-.005 1.155l6.317 10.521a.564.564 0 0 1 .059.551c-.175.478-.974 1.564-1.845 1.843-.458.261-.04.552.106.601.05.017.133.032.225.044.345.045.69-.09.913-.355 0 0 1.076-1.667 1.648-1.947.605-.296 1.434-.06 2.57-.817 1.135-.757 1.45-1.26 2.018-1.324.567-.063 1.26.064 1.26-.252 0-.315-2.16-4.256-3.121-5.867-.836-1.4-3.113-4.84-3.697-5.719a.308.308 0 0 0-.373-.118c-.587.223-2.117.81-2.823 1.135-.884.408-2.142 1.008-2.63 1.472-.34-.266-.293-.56-.214-.735.062-.136.236-.489.367-.75a.519.519 0 0 0-.074-.578m-9.272-10.71l6.558 10.513a.851.851 0 0 0 .893.385c.918-.19 1.988-.318 3.304-.919a14.473 14.473 0 0 0 2.356-1.346c.52-.368.67-1.07.343-1.615l-6.236-10.45a.99.99 0 0 0-1.132-.442l-6.032 1.8-.054 2.073z"/><path fill="#103A7E" d="M247.514 189.794l-.278.349-1.326 14.241.763.764 1.359-14.74z"/><path fill="#78C7F0" d="M242.19 192.536c.33.653-.886 3.072-3.345 4.492-2.46 1.42-5.148 1.24-5.563.65-.703-1 .885-3.072 3.345-4.492s5.01-1.743 5.562-.65"/><path fill="#D2F0FA" d="M241.073 192.363c.22.447-.87 2.245-2.873 3.402-2.004 1.158-4.094 1.185-4.384.787-.491-.673.869-2.246 2.873-3.402 2.005-1.157 4.017-1.536 4.384-.787m6.98-4.852l.432.02a.197.197 0 0 1 .161.1l.394.697a.113.113 0 0 1-.1.17l-1.032-.023a.136.136 0 0 1-.125-.18l.27-.784z"/><path fill="#D2F0FA" d="M248.829 188.495l-.494 1.184-.507-.675.244-.527zM178.564 30.575l2.316 4.925-1.722 32.833 1.368.595 1.573-33.193-.681-.408-2.176-4.898z"/><path fill="#1E5AAA" d="M180.543 68.566l.67.528 1.494-33.75.736-1.564a1.4 1.4 0 0 0 .153-.41l.68-3.356-1.154.261-.263 2.893a.603.603 0 0 1-.113.302l-1.327 1.857.68.408-1.556 32.831z"/><path fill="#143B78" d="M181.943 6.577c.632-.06 2.795.215 3.928 1.623 1.133 1.407 3.09 5.32 3.09 5.32l2.815 1.168.034 6.008-3.09-.823.172 1.51 2.884.824-2.759 52.446-.831-.723 1.574-44.775-4.45-1.82-1.052-3.491-4.586-.673 2.271-16.594z"/><path fill="#1E5AAA" d="M182.163 21.656l1.468-14.844c-.727-.214-1.384-.264-1.688-.235l-1.427 15.355 1.647-.276z"/><path fill="#143B78" d="M178.404 18.45l1.598 3.597.513-.115 1.456-12.073-.028-3.282-1.335-3.294-.88 4.638-.474 1.977z"/><path fill="#D2F0FA" d="M182.163 21.656c-.546-.041-1.474-.049-1.988.131-.166.057-.325-.227-.383-.393l-.907-2.543a1.141 1.141 0 0 1-.064-.498l.929-9.82a.214.214 0 0 0 .082-.132l.56-3.158.216-1.96a.214.214 0 0 0-.19-.236.217.217 0 0 0-.236.189l-.215 1.946-.272 1.532a3.554 3.554 0 0 0-1.743.853c-.66.594-1.038 1.605-1.038 1.605l-1.57-.529a1.168 1.168 0 0 0-.343-.082l-3.365-.266a.368.368 0 0 0-.395.325l-.685 5.86a.48.48 0 0 0 .32.511l2.876.993-.018.349-2.67-.468a.82.82 0 0 0-.958.758l-.345 5.648a1.533 1.533 0 0 0 1.325 1.613l2.26.305-.017.336-.521.112a.305.305 0 0 0-.24.276l-.433 6.458a.31.31 0 0 0 .48.281l4.472-2.935 5.153-5.48s-.061-.967-.077-1.581"/><path fill="#78C7F0" d="M174.988 24.209l-4.085-.611-.761-.673.299-6.021a.762.762 0 0 1 .944-.701l3.978.989-.375 7.017z"/><path fill="#143B78" d="M178.209 15.613l.009.463-7.898 6.956.702.424-.265 1.283-1.448.286-1.103.566-4.284 40.449-.375-.566 3.9-40.803.315-.494z"/><path fill="#D2F0FA" d="M178.209 15.613l-.135-.941-10.357 8.474-1.143.454-4.095 40.183 1.068 1.691 3.9-40.803.315-.494.448.762.896-.448.987-.134.128-.896-.532-.046.134-.609zM190.106 5.526l-5.503 3.145s-.098 3.727-.1 4.384c.512.244 1.117.89 1.49 1.68.552-.32 3.942-2.304 3.942-2.304l.171-6.905zM190.243 12.841l-6.084 4.786-.41 4.649 1.401 1.264 2.051-.889 2.7-1.948z"/><path fill="#1E5AAA" d="M176.589 17.412l.568.03.097 5.011-1.468 1.756h-.798l.293-5.679z"/><path fill="#78C7F0" d="M171.204 8.938a12.178 12.178 0 0 1 3.95.327c0 2.003-.178 6.141-.178 6.141l-4.393-1.16.62-5.308"/><path fill="#1E5AAA" d="M177.84 10.052l-2.687-.787-.177 6.14 1.193.341 1.451-2.901zM182.013 12.425c1.062.39 2.432.977 3.16 3.241-.84-.111-2.465-.47-2.966-1.367-.502-.896-.194-1.874-.194-1.874"/><path fill="#78C7F0" d="M185.713 14.236l1.243-.672-.031-5.282-1.606-.02-.715.41-.103 4.383c.4.19.855.625 1.212 1.181"/><path fill="#D2F0FA" d="M185.879 27.947l3.184 1.155s.41.772.812.722c.4-.05 1.097-.334 1.02-.747-.078-.413-4.236-6.192-4.236-6.192l-.655.285 3.627 5.417-3.605-1.218-.148.578z"/><path fill="#1E5AAA" d="M186.079 26.761c0 2.366-2.312 4.284-5.163 4.284-2.852 0-5.162-1.918-5.162-4.284 0-2.23 2.325-3.997 5.162-4.284 3.083-.313 5.163 1.751 5.163 4.284"/><path fill="#D2F0FA" d="M184.373 26.761c0 1.584-1.548 2.87-3.457 2.87-1.91 0-3.456-1.286-3.456-2.87s1.547-2.869 3.456-2.869 3.457 1.285 3.457 2.87"/><path fill="#143B78" d="M184.36 26.96c.006-.065.013-.131.013-.198 0-1.584-1.548-2.87-3.457-2.87l.09 1.464 3.355 1.605z"/><path fill="#78C7F0" d="M184.373 27.167c0 1.584-1.548 2.868-3.457 2.868-1.91 0-3.456-1.284-3.456-2.868 0-1.585 1.547-2.87 3.456-2.87s3.457 1.285 3.457 2.87"/><path fill="#143B78" d="M179.502 11.143l1.573 4.771 4.929 7.255.656-.284-5.856-9.529-1.163-3.671z"/><path fill="#76281E" d="M144.252 87.035c-.167.756.174 1.474.76 1.603.587.129 1.197-.378 1.364-1.134.167-.755-.174-1.473-.76-1.603-.587-.13-1.197.379-1.364 1.134"/><path fill="#AC281E" d="M146.038 87.544L8.676 43.01l.37-1.164s130.75 42.475 136.562 44.368c.73.237.43 1.329.43 1.329"/><path fill="#FF3C1E" d="M145.84 87.413L8.902 42.923M144.17 88.227L8.673 44.207l.357-1.18s136.803 44.452 137.008 44.516c-.134.35-.447.622-.732.672-.38.068-.771.131-1.137.012"/><path fill="#FF3C1E" d="M8.974 37.022c-1.323.32-2.664.43-5.154 2.263-2.49 1.833-3.995 3.421-3.804 4.898.191 1.478 1.505 3.256 3.394 3.256 1.887 0 3.721-.848 4.98-1.997 1.26-1.149 3.24-3.134 3.851-4.208.61-1.073-3.267-4.212-3.267-4.212"/><g transform="translate(0 37)"><mask id="d" fill="#fff"><use xlink:href="#c"/></mask><path fill="#AC281E" d="M11.526 1.416C10.624.253 9.616.019 8.974.022 7.473.03 6.31.452 3.82 2.285 1.33 4.118-.175 5.705.016 7.184c.103.787.526 1.657 1.181 2.3C.016 7.184 5.883 1.28 9.689 2.84c.901 1.163 2.044 1.787 2.552 1.393.507-.392.186-1.654-.715-2.818" mask="url(#d)"/></g><path fill="#76281E" d="M169.926 141.589l3.715-3.004 2.684 1.733c.458.294 1.011.137 1.39-.254 3.97-4.1 7.811-11.23 8.901-12.032 1.801-1.321 8.046-3.887 8.046-3.887l-4.254-.035-9.705 5.155-10.777 12.324z"/><path fill="#FF3C1E" d="M208.096 81.003l4.682-1.171a.869.869 0 0 1 .93.356l5.1 7.515 6.067 17.654a.607.607 0 0 1-.468.796l-13.282 2.344a.69.69 0 0 1-.787-.5l-5.182-18.528a1.159 1.159 0 0 1 .012-.665l2.318-7.242a.867.867 0 0 1 .61-.56M176.3 115.894l9.85-5.187a.368.368 0 0 1 .526.226l3.732 13.177s-6.908 3.867-9.265 5.421c-1.837 1.498-11.217 12.058-11.217 12.058-.257.281-.718.03-.622-.339l6.406-24.615c.083-.319.298-.589.59-.74"/><path fill="#76281E" d="M194.663 124.144l-4.254-.035-3.772-13.27 5.125 4.191c.06.05.104.114.128.188l2.773 8.926z"/><path fill="#AC281E" d="M190.409 124.11l-3.764-13.255a.368.368 0 0 0-.495-.148l-5.862 3.087 2.815 14.521c2.974-1.78 7.306-4.206 7.306-4.206m33.998-17.956l-5.134-8.337-3.15-9.638a.405.405 0 0 1 .394-.531l2.29.056-5.087-7.503a.867.867 0 0 0-.926-.356l-4.698 1.159-.088 1.396 5.205 16.339-2.087 9.759 13.28-2.344z"/><path fill="#76281E" d="M218.552 99.43l5.854 6.723a.608.608 0 0 0 .47-.797l-6.069-17.654-3.392-.602 3.137 12.33zm-15.746-9.399h2.858l-.78 1.779-2.078-1.779zm7.822 7.659l-6.879-1.483 1.407-3.204 5.472 4.687zm-1.318 4.929l-6.967-.904-.215-1.817 1.082-2.462 6.1 5.183zm2.887-4.547l-6.735-5.768 1.095-2.491a.363.363 0 0 0-.334-.512h-4.268l-.045-.039 5.85-4.411a.365.365 0 0 0-.224-.655l-8.677.107.008.729 7.564-.093-5.32 4.015a.36.36 0 0 0-.143.347h-.684v.73h1.401l2.892 2.477-1.555 3.543-.512-.11a.368.368 0 0 0-.404.195.367.367 0 0 0 .091.439l.432.368-1.207 2.751a.374.374 0 0 0-.03.191l.26 2.198c.02.166.15.297.314.318l8.476 1.101.044.003a.365.365 0 0 0 .235-.644l-6.943-5.901 8.105 1.747a.354.354 0 0 0 .402-.195.363.363 0 0 0-.088-.44z"/><path fill="#FF3C1E" d="M193.626 83.833c5.077 8.077 9.13 17.367 9.114 23.313-.008 2.56-1.23 4.234-2.69 5.365-4.307 3.337-16.194-2.403-22.835-13.254-9.441-15.424-9.751-25.212-6.058-29.43 1.44-1.643 3.845-1.947 5.922-1.984 5.12-.091 11.54 8.024 16.547 15.99"/><path fill="#AC281E" d="M195.615 83.11c7.26 11.554 9.735 24.29 4.885 28.048-4.31 3.338-14.655-1.773-21.297-12.624-9.441-15.424-9.386-24.919-5.692-29.138 4.034-4.606 14.32 1.33 22.104 13.714"/><path fill="#FF3C1E" d="M193.216 86.597c3.372 5.352 8.696 13.132 8.696 13.132s-3.808 2.733-5.154 3.722c-2.63 1.935-8.662-.677-14.03-8.303-4.857-6.898-6.484-15.085-3.625-17.406 1.652-1.342 5.672-4.18 5.672-4.18s4.92 7.446 8.441 13.035"/><path fill="#AC281E" d="M198.37 82.875c4.497 7.136 6.444 14.598 3.543 16.854-2.577 2.005-8.662-.677-14.031-8.303-4.856-6.898-6.014-14.605-3.624-17.406 2.385-2.797 9.293 1.207 14.113 8.855"/><path fill="#76281E" d="M200.91 91.298c.052.418.097.727.105.962.126 3.288-4.471 6.295-5.41 4.189-.83-2.241-2.094-4.744-3.68-7.232a32.418 32.418 0 0 0-3.12-4.14s1.082-1.67 2.513-2.814c1.432-1.146 3.735-1.397 3.735-1.397-3.917-4.773-8.216-7.104-9.703-5.217-.967 1.228-1.007 3.748-.156 6.782l.006.02c.152.54.332 1.095.54 1.66.014.038.026.074.04.109.104.277.21.557.328.839a30.111 30.111 0 0 0 3.184 5.764c1.48 2.115 2.993 3.827 4.432 5.14.2.184.398.357.594.523l.03.026c.185.156.37.307.552.449l.034.027c2.729 2.13 5.074 2.724 6.276 1.77 1.375-1.09 1.195-3.89-.113-7.52-.063-.17-.208-.11-.187.06"/><path fill="#AC281E" d="M191.247 72.888c.774 1.136.988 2.34.478 2.688-.512.348-1.554-.29-2.33-1.425-.773-1.136-.987-2.339-.476-2.688.51-.348 1.554.29 2.328 1.425"/><path fill="#D2F0FA" d="M191.577 75.192c-.676-.028-1.333-.445-1.81-.898l-.097-.113a3.345 3.345 0 0 1-.623-1.056l-.011-.03c-.072-.364-.057-.78.052-1.257a.286.286 0 1 0-.56-.126c-.14.623-.143 1.18-.014 1.666L167.359 84.86c-.334.182-.498.596-.333.938a.702.702 0 0 0 .968.314l21.247-11.53c.575.591 1.412 1.144 2.312 1.182h.012a.286.286 0 0 0 .012-.572m-.604-2.17l1.41-.929"/><path fill="#D2F0FA" d="M190.974 74.023a1.002 1.002 0 0 1-.552-1.839l1.41-.928a1.002 1.002 0 0 1 1.102 1.674l-1.41.928a.993.993 0 0 1-.55.165"/><path fill="#FF3C1E" d="M159.244 59.042l-4.012 3.554-2.292 1.604s1.375 1.949 2.579 4.185c1.204 2.235 2.12 4.527 2.12 4.527s2.465.86 4.299 1.318a25.091 25.091 0 0 1 3.209 1.032l1.95-1.547s-.574-2.981-2.923-7.222c-2.351-4.241-2.923-5.044-4.93-7.451"/><path fill="#76281E" d="M159.187 60.074s-3.096 2.292-3.268 2.808a.867.867 0 0 0 .172.86l1.147-.86 2.98-1.261-1.03-1.547z"/><path fill="#AC281E" d="M158.153 60.862l.098.945.481.443 1.486-.629-1.031-1.547z"/><path fill="#76281E" d="M155.376 63.248l-.144-.652-2.293 1.604s1.376 1.949 2.58 4.185c1.204 2.235 2.12 4.527 2.12 4.527l2.305-1.423-4.568-8.241z"/><path fill="#AC281E" d="M156.568 64.146l1.084-.823 3.028-1.234 2.281 3.626-4.45.3-.485.673z"/><path fill="#76281E" d="M159.335 63.511l-2.767.636.445.774.639-.214 2.43-.375zM158.026 66.688l.485-.673 2.544-.171-.338-.763-3.223.085-.183.276z"/><path fill="#AC281E" d="M158.187 67.074l.651-.61 4.274-.203 2.034 3.54-4.883-.896-.61.815z"/><path fill="#AC281E" d="M159.856 70.493l.691.895 5.82 1.872-.936-2.645-5.046-.977z"/><path fill="#76281E" d="M161.606 67.237l.691 1.262-2.604.081-.915-.441-.591-1.065zM160.171 70.899l3.47.773.178.768-3.271-1.053z"/></g></svg>