<?xml version="1.0" standalone="no"?>
<!DOCTYPE svg PUBLIC "-//W3C//DTD SVG 20010904//EN"
 "http://www.w3.org/TR/2001/REC-SVG-20010904/DTD/svg10.dtd">
<svg version="1.0" xmlns="http://www.w3.org/2000/svg"
 width="700.000000pt" height="700.000000pt" viewBox="0 0 700.000000 700.000000"
 preserveAspectRatio="xMidYMid meet">
<metadata>
Created by potrace 1.14, written by Peter Selinger 2001-2017
</metadata>
<g transform="translate(0.000000,700.000000) scale(0.100000,-0.100000)"
fill="#000000" stroke="none">
<path d="M4428 5985 c-2 -1 -48 -5 -103 -9 -98 -6 -134 -10 -205 -22 -19 -4
-48 -8 -64 -10 -36 -5 -212 -49 -291 -73 -303 -93 -617 -268 -865 -480 -396
-341 -671 -787 -799 -1296 -20 -80 -22 -91 -36 -175 -4 -25 -9 -54 -11 -65
-26 -138 -25 -624 1 -725 2 -8 6 -33 10 -55 3 -22 7 -47 10 -55 2 -8 6 -26 9
-40 2 -14 11 -54 21 -90 112 -438 329 -823 645 -1141 91 -92 234 -214 315
-269 28 -19 52 -37 53 -42 2 -4 8 -8 13 -8 4 0 39 -20 76 -43 143 -92 314
-173 496 -236 115 -40 288 -85 362 -96 22 -3 61 -10 86 -15 140 -28 497 -31
684 -6 548 75 1043 320 1430 710 133 133 151 154 242 276 199 266 341 568 428
910 7 30 33 170 50 280 11 64 13 424 4 520 -83 870 -619 1635 -1409 2012 -206
99 -433 172 -630 203 -47 8 -68 11 -110 20 -60 11 -403 28 -412 20z m237
-1570 c203 -41 372 -131 509 -271 60 -61 153 -193 179 -254 9 -19 22 -51 31
-71 30 -69 57 -211 57 -299 1 -363 -223 -712 -555 -865 -60 -28 -114 -46 -221
-72 -39 -9 -248 -10 -293 -1 -209 43 -379 133 -519 276 -62 64 -135 164 -171
237 -25 50 -68 177 -78 230 -4 22 -9 47 -11 55 -6 25 -4 203 2 245 38 238 155
441 345 597 113 91 262 160 410 189 83 16 248 18 315 4z"/>
<path d="M258 5262 c-142 -1 -258 -4 -258 -6 0 -2 7 -23 16 -47 8 -24 32 -100
54 -169 55 -180 123 -398 165 -530 20 -63 47 -149 60 -190 13 -41 42 -133 65
-205 23 -71 43 -138 45 -147 2 -9 28 -95 59 -190 60 -188 363 -1156 401 -1278
12 -41 46 -149 74 -240 88 -279 152 -482 173 -551 l20 -65 439 0 c241 0 439 3
440 6 0 3 2 814 2 1804 1 1191 -1 1800 -8 1802 -13 5 -1403 10 -1747 6z"/>
</g>
</svg>
